HIERARCHY
ROOT Hips
{
  OFFSET 1.73907 43.2358 0.0522707
  CHANNELS 6 Xposition Yposition Zposition Zrotation Xrotation Yrotation
  JOINT Bip01_Pelvis
  {
    OFFSET 0 0 0
    CHANNELS 6 Xposition Yposition Zposition Zrotation Xrotation Yrotation
    JOINT BN_Tail_01
    {
      OFFSET -2.28979 -2.39917 0
      CHANNELS 6 Xposition Yposition Zposition Zrotation Xrotation Yrotation
      JOINT BN_Tail_02
      {
        OFFSET 9.67405 0 0
        CHANNELS 6 Xposition Yposition Zposition Zrotation Xrotation Yrotation
        JOINT BN_Tail_03
        {
          OFFSET 10.5192 0 -1.14441e-005
          CHANNELS 6 Xposition Yposition Zposition Zrotation Xrotation Yrotation
          JOINT BN_Tail_04
          {
            OFFSET 8.16754 0 0
            CHANNELS 6 Xposition Yposition Zposition Zrotation Xrotation Yrotation
            End Site
            {
              OFFSET 0 0 0
            }
          }
        }
      }
    }
    JOINT Bip01_Spine
    {
      OFFSET 2.25317 -0.00479889 0
      CHANNELS 6 Xposition Yposition Zposition Zrotation Xrotation Yrotation
      JOINT Bip01_R_Thigh
      {
        OFFSET -2.32652 -0.461891 -2.25534
        CHANNELS 6 Xposition Yposition Zposition Zrotation Xrotation Yrotation
        JOINT Bip01_R_Calf
        {
          OFFSET 9.47902 0 0
          CHANNELS 6 Xposition Yposition Zposition Zrotation Xrotation Yrotation
          JOINT Bip01_R_Foot
          {
            OFFSET 8.42616 0 0
            CHANNELS 6 Xposition Yposition Zposition Zrotation Xrotation Yrotation
            JOINT Bip01_R_Toe1
            {
              OFFSET 1.4015 3.97627 -1.33795
              CHANNELS 6 Xposition Yposition Zposition Zrotation Xrotation Yrotation
              JOINT Bip01_R_Toe11
              {
                OFFSET 2.94553 0 0
                CHANNELS 6 Xposition Yposition Zposition Zrotation Xrotation Yrotation
                JOINT Bip01_R_Toe1Nub
                {
                  OFFSET 2.52656 0 0
                  CHANNELS 6 Xposition Yposition Zposition Zrotation Xrotation Yrotation
                  End Site
                  {
                    OFFSET 0 0 0
                  }
                }
              }
            }
            JOINT Bip01_R_Toe0
            {
              OFFSET 2.09729 6.93129 0.0277901
              CHANNELS 6 Xposition Yposition Zposition Zrotation Xrotation Yrotation
              JOINT Bip01_R_Toe01
              {
                OFFSET 3.0714 0 0
                CHANNELS 6 Xposition Yposition Zposition Zrotation Xrotation Yrotation
                JOINT Bip01_R_Toe0Nub
                {
                  OFFSET 3.37999 0 0
                  CHANNELS 6 Xposition Yposition Zposition Zrotation Xrotation Yrotation
                  End Site
                  {
                    OFFSET 0 0 0
                  }
                }
              }
            }
          }
        }
      }
      JOINT Bip01_L_Thigh
      {
        OFFSET -2.07803 -0.462101 2.48614
        CHANNELS 6 Xposition Yposition Zposition Zrotation Xrotation Yrotation
        JOINT Bip01_L_Calf
        {
          OFFSET 9.47902 0 0
          CHANNELS 6 Xposition Yposition Zposition Zrotation Xrotation Yrotation
          JOINT Bip01_L_Foot
          {
            OFFSET 8.42617 0 0
            CHANNELS 6 Xposition Yposition Zposition Zrotation Xrotation Yrotation
            JOINT Bip01_L_Toe1
            {
              OFFSET 1.40151 3.97627 1.33796
              CHANNELS 6 Xposition Yposition Zposition Zrotation Xrotation Yrotation
              JOINT Bip01_L_Toe11
              {
                OFFSET 2.94554 0 0
                CHANNELS 6 Xposition Yposition Zposition Zrotation Xrotation Yrotation
                JOINT Bip01_L_Toe1Nub
                {
                  OFFSET 2.52656 0 0
                  CHANNELS 6 Xposition Yposition Zposition Zrotation Xrotation Yrotation
                  End Site
                  {
                    OFFSET 0 0 0
                  }
                }
              }
            }
            JOINT Bip01_L_Toe0
            {
              OFFSET 2.0973 6.93128 -0.0277834
              CHANNELS 6 Xposition Yposition Zposition Zrotation Xrotation Yrotation
              JOINT Bip01_L_Toe01
              {
                OFFSET 3.07141 0 0
                CHANNELS 6 Xposition Yposition Zposition Zrotation Xrotation Yrotation
                JOINT Bip01_L_Toe0Nub
                {
                  OFFSET 3.37999 0 0
                  CHANNELS 6 Xposition Yposition Zposition Zrotation Xrotation Yrotation
                  End Site
                  {
                    OFFSET 0 0 0
                  }
                }
              }
            }
          }
        }
      }
      JOINT Bip01_Spine1
      {
        OFFSET 6.17162 -0.00484467 0
        CHANNELS 6 Xposition Yposition Zposition Zrotation Xrotation Yrotation
        JOINT BN_R_Clavicle_01
        {
          OFFSET 6.15897 -2.02444 -2.78435
          CHANNELS 6 Xposition Yposition Zposition Zrotation Xrotation Yrotation
          JOINT BN_R_UpperArm_01
          {
            OFFSET 3.43915 0 0
            CHANNELS 6 Xposition Yposition Zposition Zrotation Xrotation Yrotation
            JOINT BN_R__Forearm_01
            {
              OFFSET 10.2529 0 0
              CHANNELS 6 Xposition Yposition Zposition Zrotation Xrotation Yrotation
              JOINT BN_R_Hand_01
              {
                OFFSET 16.2051 0 0
                CHANNELS 6 Xposition Yposition Zposition Zrotation Xrotation Yrotation
                JOINT BN_R_Finger_07
                {
                  OFFSET 2.2539 2.19923 0.192043
                  CHANNELS 6 Xposition Yposition Zposition Zrotation Xrotation Yrotation
                  End Site
                  {
                    OFFSET 0 0 0
                  }
                }
                JOINT BN_R_Finger_01
                {
                  OFFSET 2.17806 -1.99631 -0.219296
                  CHANNELS 6 Xposition Yposition Zposition Zrotation Xrotation Yrotation
                  End Site
                  {
                    OFFSET 0 0 0
                  }
                }
                JOINT BN_R_Finger_05
                {
                  OFFSET 3.30715 1.42802 0.17391
                  CHANNELS 6 Xposition Yposition Zposition Zrotation Xrotation Yrotation
                  End Site
                  {
                    OFFSET 0 0 0
                  }
                }
                JOINT BN_R_Finger_03
                {
                  OFFSET 3.93641 -0.769831 0.580946
                  CHANNELS 6 Xposition Yposition Zposition Zrotation Xrotation Yrotation
                  End Site
                  {
                    OFFSET 0 0 0
                  }
                }
              }
            }
          }
        }
        JOINT BN_L_Clavicle_01
        {
          OFFSET 6.15897 -2.02445 2.78458
          CHANNELS 6 Xposition Yposition Zposition Zrotation Xrotation Yrotation
          JOINT BN_L_UpperArm_01
          {
            OFFSET 3.43915 0 0
            CHANNELS 6 Xposition Yposition Zposition Zrotation Xrotation Yrotation
            JOINT BN_L__Forearm_01
            {
              OFFSET 10.2529 0 0
              CHANNELS 6 Xposition Yposition Zposition Zrotation Xrotation Yrotation
              JOINT BN_L_Hand_01
              {
                OFFSET 16.2051 0 0
                CHANNELS 6 Xposition Yposition Zposition Zrotation Xrotation Yrotation
                JOINT BN_L_Finger_05
                {
                  OFFSET 3.30715 -1.42803 0.173891
                  CHANNELS 6 Xposition Yposition Zposition Zrotation Xrotation Yrotation
                  End Site
                  {
                    OFFSET 0 0 0
                  }
                }
                JOINT BN_L_Finger_07
                {
                  OFFSET 2.2539 -2.19925 0.19203
                  CHANNELS 6 Xposition Yposition Zposition Zrotation Xrotation Yrotation
                  End Site
                  {
                    OFFSET 0 0 0
                  }
                }
                JOINT BN_L_Finger_01
                {
                  OFFSET 2.17804 1.99629 -0.219303
                  CHANNELS 6 Xposition Yposition Zposition Zrotation Xrotation Yrotation
                  End Site
                  {
                    OFFSET 0 0 0
                  }
                }
                JOINT BN_L_Finger_03
                {
                  OFFSET 3.9364 0.769825 0.580943
                  CHANNELS 6 Xposition Yposition Zposition Zrotation Xrotation Yrotation
                  End Site
                  {
                    OFFSET 0 0 0
                  }
                }
              }
            }
          }
        }
        JOINT Bip01_Neck
        {
          OFFSET 7.02381 -0.81237 0
          CHANNELS 6 Xposition Yposition Zposition Zrotation Xrotation Yrotation
          JOINT Bip01_Head
          {
            OFFSET 1.54249 1.14441e-005 0
            CHANNELS 6 Xposition Yposition Zposition Zrotation Xrotation Yrotation
            JOINT BN_Mouth_01
            {
              OFFSET 2.32836 0.166542 0
              CHANNELS 6 Xposition Yposition Zposition Zrotation Xrotation Yrotation
              End Site
              {
                OFFSET 0 0 0
              }
            }
            JOINT BN_R_Ear_01
            {
              OFFSET 3.4208 -0.773972 -2.25959
              CHANNELS 6 Xposition Yposition Zposition Zrotation Xrotation Yrotation
              End Site
              {
                OFFSET 0 0 0
              }
            }
            JOINT BN_L_Ear_01
            {
              OFFSET 3.4208 -0.773976 2.25975
              CHANNELS 6 Xposition Yposition Zposition Zrotation Xrotation Yrotation
              End Site
              {
                OFFSET 0 0 0
              }
            }
            JOINT Bip01_HeadNub
            {
              OFFSET 6.74789 0 0
              CHANNELS 6 Xposition Yposition Zposition Zrotation Xrotation Yrotation
              End Site
              {
                OFFSET 0 0 0
              }
            }
          }
        }
      }
    }
  }
}
MOTION
Frames:	4
Frame Time:	0.0333333
-81.7762 17.2434 -14.6681 158.799 -13.0517 58.8144 0 0 0 -89.9965 -3.50835e-015 -90 -2.28979 -2.39919 -1.62927e-011 100.4 69.254 80.5756 9.67406 -2.38419e-007 7.6294e-006 4.0974 3.65271 -22.3802 10.5192 5.96046e-008 0 -2.00939 11.4361 -33.4166 8.16754 -2.86102e-006 -1.14441e-005 -16.3878 0.296161 -3.17989 2.25379 -0.004879 -0.000416547 45.7415 5.90762 17.9737 -0.714957 1.36611 -2.88885 -64.9246 23.1177 143.881 9.47902 0 -1.77636e-015 -68.7607 1.48865e-008 -9.57109e-007 8.42616 3.8147e-006 8.88179e-015 -14.2401 4.19163 20.1575 1.4015 3.97628 -1.33794 77.7682 -31.01 18.3691 2.94553 7.10543e-015 -5.32907e-015 -29.0664 9.69302e-007 3.88795e-006 2.52656 -1.90735e-006 -7.6294e-006 6.89117e-007 4.9015e-006 -7.05721e-007 2.0973 6.9313 0.0278095 58.7573 -4.22001e-007 2.42439e-005 3.07141 7.6294e-006 -2.62901e-013 -52.1648 -4.74646e-006 4.53356e-006 3.37999 -1.90735e-006 2.38419e-007 -6.89702e-007 -2.00488e-007 8.66436e-007 -2.17261 1.85465 1.60337 -40.3833 40.4672 144.033 9.47902 -3.8147e-006 9.53675e-007 -47.887 6.59263e-006 7.13468e-006 8.42617 -2.25597e-013 2.86102e-006 -57.9441 3.20616 9.3181 1.4015 3.97627 1.33796 69.8964 41.2044 -18.2109 2.94553 3.8147e-006 3.8147e-006 -12.7067 1.91378e-006 1.59767e-006 2.52656 -2.34479e-013 -3.8147e-006 -179.96 -5.93478e-005 1.6614e-005 2.0973 6.93129 -0.0277842 56.8737 -1.66543e-006 4.66624e-006 3.0714 1.14441e-005 -3.01981e-013 -36.5213 9.60615e-006 5.7308e-006 3.38 1.90735e-006 -2.4869e-014 179.96 -5.10954e-005 -3.06762e-005 6.17171 -0.00487518 -0.000144839 18.1745 -11.7473 19.4974 6.15899 -2.02444 -2.78435 -178.019 9.66755 77.6449 3.43915 -7.10543e-015 2.13163e-014 40.9109 58.8118 -76.1003 10.2529 -7.62939e-006 3.8147e-006 -14.2788 1.12919 -0.292093 16.2051 1.90735e-006 3.8147e-006 3.14701 -40.9917 -8.74773 2.25392 2.19925 0.192031 69.8751 0.109811 -33.7763 2.17805 -1.99629 -0.219303 -71.1853 -0.139939 -40.0304 3.30715 1.42804 0.1739 21.7086 1.63675 -38.4057 3.93641 -0.769817 0.580934 -0.208499 -0.0184137 -25.3258 6.15898 -2.02445 2.78458 -1.38881 -0.652746 -74.5392 3.43915 -3.8147e-006 -2.84217e-014 8.59975 -0.532969 -89.335 10.2529 -7.10543e-015 1.90735e-006 58.506 -13.7785 -1.39082 16.2051 -3.8147e-006 1.90735e-006 0.833476 -26.1097 -14.6825 3.30715 -1.42802 0.173889 -18.1985 -3.2191 -29.1249 2.25391 -2.19925 0.19203 -64.8523 -0.44554 -27.4423 2.17805 1.99629 -0.219301 71.0428 0.152818 1.0238 3.9364 0.76983 0.580938 7.63278 -15.9251 -24.3354 7.02382 -0.812376 -2.97076e-008 10.998 -2.54163e-006 1.52036e-006 1.54247 3.8147e-006 4.76838e-007 -29.6345 0.0786566 25.7022 2.10596 -0.356756 0.0332333 -61.6954 0.109497 179.977 3.42081 -0.773968 -2.25959 163.011 4.65938 165.082 3.42081 -0.773977 2.25975 -17.7635 -2.10265 -0.611834 6.74791 -1.90735e-006 -5.96047e-008 -2.94819e-006 1.45356e-008 -2.85223e-008 
-84.0257 13.0879 -14.8295 159.976 -10.7859 56.3973 0 0 0 -89.9965 -3.50835e-015 -90 -2.28979 -2.39919 3.52429e-012 102.253 69.6428 82.3623 9.67406 -2.38419e-007 7.6294e-006 3.65284 3.64957 -22.4343 10.5192 5.96046e-008 -2.84217e-014 -2.67844 11.0769 -32.3578 8.16754 -2.86102e-006 -1.14441e-005 -16.5609 -0.415745 -4.17773 2.25379 -0.004879 -0.000416547 50.8433 5.68772 15.3571 -0.699217 1.50847 -2.82114 -62.1468 17.3754 144.77 9.47902 -1.42109e-014 1.06581e-014 -61.2741 9.04004e-007 -1.53374e-006 8.42616 3.8147e-006 1.77636e-015 -17.1823 6.176 20.2398 1.4015 3.97628 -1.33794 76.2171 -30.8828 17.947 2.94553 0 1.06581e-014 -30.4393 6.2602e-007 3.47523e-006 2.52656 -1.90735e-006 -7.6294e-006 6.89117e-007 4.9015e-006 -7.05721e-007 2.0973 6.9313 0.0278094 55.1849 -9.46319e-006 1.92069e-005 3.07141 7.6294e-006 -3.55272e-013 -55.8488 3.47567e-006 -2.54367e-006 3.37999 -1.90735e-006 2.38419e-007 -6.89702e-007 -2.00488e-007 8.66436e-007 -1.95073 1.97909 1.7347 -43.9915 38.0953 146.445 9.47902 -3.8147e-006 9.53675e-007 -56.0231 6.26663e-006 7.51422e-006 8.42617 -2.27374e-013 2.86102e-006 -55.4612 9.65344 7.42462 1.4015 3.97627 1.33796 69.3907 41.0583 -18.227 2.94553 3.8147e-006 3.8147e-006 -12.7067 2.10971e-006 1.58212e-006 2.52656 -2.27374e-013 -3.8147e-006 -179.96 -5.9347e-005 1.66144e-005 2.0973 6.93129 -0.0277842 55.7024 -2.95221e-006 4.53052e-006 3.0714 1.14441e-005 -8.88179e-014 -31.9352 9.65957e-006 5.58111e-006 3.38 1.90735e-006 3.55272e-015 179.96 -5.10949e-005 -3.06773e-005 6.17171 -0.00487518 -0.000144839 17.5428 -16.2092 20.7868 6.15899 -2.02444 -2.78435 -178.019 9.66755 77.6449 3.43915 2.13163e-014 7.10543e-015 38.7817 64.8352 -72.0511 10.2529 -7.62939e-006 3.8147e-006 -14.3945 1.30002 -0.329345 16.2051 1.90735e-006 3.8147e-006 3.36991 -41.2166 -7.19095 2.25392 2.19925 0.192031 69.6828 0.202855 -42.111 2.17805 -1.99629 -0.219303 -71.1848 -0.140206 -40.2801 3.30715 1.42804 0.1739 21.7581 1.72962 -48.4042 3.93641 -0.769817 0.580934 -0.317681 0.120248 -35.5641 6.15898 -2.02445 2.78458 -1.27002 -1.39686 -63.8485 3.43915 -3.8147e-006 -1.13687e-013 3.83156 8.92556 -100.507 10.2529 2.13163e-014 1.90735e-006 71.2932 -17.7735 -3.47802 16.2051 -3.8147e-006 1.90735e-006 0.588341 -23.0367 -5.12136 3.30715 -1.42802 0.173889 -18.0101 -3.30489 -27.331 2.25391 -2.19925 0.19203 -64.8666 -0.615954 -23.1491 2.17805 1.99629 -0.219301 71.0485 0.141944 -1.90184 3.9364 0.76983 0.580938 8.35259 -15.6976 -21.5915 7.02382 -0.812376 -3.96805e-008 10.998 -2.58803e-006 1.06614e-006 1.54247 3.8147e-006 4.76838e-007 -29.4029 8.49703 30.1962 2.10596 -0.356756 0.0332333 -61.6514 0.0783082 179.989 3.42081 -0.773968 -2.25959 162.188 2.90789 164.553 3.42081 -0.773978 2.25975 -18.6109 -0.389768 -0.00711353 6.74791 -1.90735e-006 -5.96047e-008 -2.94819e-006 1.45356e-008 -2.84784e-008 
-86.12 9.2997 -14.9809 161.252 -8.68097 54.3433 0 0 0 -89.9965 -3.50835e-015 -90 -2.28979 -2.39919 -1.68789e-011 104.518 70.0634 84.2649 9.67406 -2.38419e-007 7.6294e-006 3.14635 3.64718 -22.498 10.5192 5.96046e-008 0 -3.42741 10.6469 -31.139 8.16754 -2.86102e-006 -1.14441e-005 -16.7483 -1.13145 -5.18771 2.25379 -0.004879 -0.000416547 55.3261 5.36525 12.6076 -0.69572 1.62807 -2.7548 -59.3785 11.6496 146.808 9.47902 0 -2.66454e-015 -54.2795 -7.27331e-006 4.14142e-006 8.42616 3.8147e-006 -2.66454e-015 -20.1598 8.23557 20.0573 1.4015 3.97628 -1.33794 74.8951 -30.7679 17.5927 2.94553 2.84217e-014 3.55272e-015 -31.612 3.43967e-008 3.41525e-006 2.52656 -1.90735e-006 -7.6294e-006 6.89117e-007 4.9015e-006 -7.05721e-007 2.0973 6.9313 0.0278093 52.1393 -2.31103e-006 2.52724e-005 3.07141 7.6294e-006 -4.44089e-013 -58.9953 -4.94606e-006 1.61263e-006 3.37999 -1.90735e-006 2.38419e-007 -6.89702e-007 -2.00488e-007 8.66437e-007 -1.72777 2.07191 1.85832 -47.2086 35.2105 149.361 9.47902 -3.8147e-006 9.53675e-007 -64.0149 -3.63952e-006 1.26609e-005 8.42617 -2.30926e-013 2.86102e-006 -52.4453 15.872 6.79217 1.4015 3.97627 1.33796 68.958 40.9377 -18.2408 2.94553 3.8147e-006 3.8147e-006 -12.7067 7.12982e-008 1.14777e-005 2.52656 -2.27374e-013 -3.8147e-006 -179.96 -5.93462e-005 1.66148e-005 2.0973 6.93129 -0.0277843 54.7055 3.70548e-006 1.06624e-005 3.0714 1.14441e-005 1.20792e-013 -28.0212 4.87415e-006 1.40889e-005 3.38 1.90735e-006 -7.10543e-015 179.96 -5.10939e-005 -3.06784e-005 6.17171 -0.00487518 -0.000144839 17.0436 -20.0206 21.7842 6.15899 -2.02444 -2.78435 -178.019 9.66755 77.6449 3.43915 -1.42109e-014 2.13163e-014 35.0423 69.9863 -66.6393 10.2529 -7.62939e-006 3.8147e-006 -14.4789 1.42953 -0.368928 16.2051 1.90735e-006 3.8147e-006 3.59193 -41.1711 -5.50036 2.25392 2.19925 0.192031 69.4625 0.250216 -49.2207 2.17805 -1.99629 -0.219303 -71.1843 -0.140538 -40.524 3.30715 1.42804 0.1739 21.8744 1.59145 -57.2189 3.93641 -0.769817 0.580934 -0.392718 0.214818 -44.7553 6.15898 -2.02445 2.78458 -1.02084 -2.0934 -54.5097 3.43915 -3.8147e-006 -1.91847e-013 1.71782 17.386 -110.781 10.2529 -2.13163e-014 1.90735e-006 82.8773 -20.862 -5.48299 16.2051 -3.8147e-006 1.90735e-006 -1.01176 -19.106 2.61242 3.30715 -1.42802 0.173889 -17.7889 -3.44259 -24.5726 2.25391 -2.19925 0.19203 -64.8681 -0.788338 -18.8057 2.17805 1.99629 -0.219301 71.0671 0.155731 -5.42908 3.9364 0.76983 0.580938 9.47436 -15.0305 -18.1928 7.02382 -0.812376 -4.68957e-008 10.998 -2.46315e-006 1.47859e-006 1.54247 3.8147e-006 4.76838e-007 -28.9101 15.7533 33.9956 2.10596 -0.356756 0.0332333 -61.607 0.0468446 -179.999 3.42081 -0.773968 -2.25959 161.342 1.14716 163.994 3.42081 -0.773978 2.25975 -19.485 1.33049 0.629447 6.74791 -1.90735e-006 -5.96047e-008 -2.94819e-006 1.45354e-008 9.98935e-006 
-87.8745 6.30189 -15.1098 162.494 -6.85592 52.8475 0 0 0 -89.9965 -3.50835e-015 -90 -2.28979 -2.39919 -1.70814e-011 107.009 70.4942 86.2099 9.67406 -2.38419e-007 7.6294e-006 2.61078 3.64266 -22.5629 10.5192 5.96046e-008 -1.42109e-014 -4.205 10.1689 -29.8305 8.16754 -2.86102e-006 -1.14441e-005 -16.9444 -1.82994 -6.18065 2.25379 -0.004879 -0.000416547 58.6754 5.01398 9.92023 -0.715823 1.71495 -2.6964 -56.7847 6.56219 149.724 9.47902 -2.84217e-014 5.32907e-015 -48.7532 2.30584e-007 -1.32017e-006 8.42616 3.8147e-006 -9.76997e-015 -22.767 10.1903 19.6074 1.4015 3.97628 -1.33794 74.0273 -30.6879 17.3605 2.94553 0 3.10863e-015 -32.3829 4.91198e-008 2.43918e-006 2.52656 -1.90735e-006 -7.6294e-006 6.89117e-007 4.9015e-006 -7.05721e-007 2.0973 6.9313 0.0278092 50.1353 -1.00453e-005 1.97586e-005 3.07141 7.6294e-006 -5.27578e-013 -61.0588 -5.0239e-006 3.71059e-007 3.37999 -1.90735e-006 2.38419e-007 -6.89726e-007 -2.00488e-007 8.66436e-007 -1.53092 2.12994 1.96267 -49.4325 32.087 152.442 9.47902 -3.8147e-006 9.53675e-007 -70.8716 -4.89742e-006 1.2124e-005 8.42617 -2.34479e-013 2.86102e-006 -49.2767 20.7668 7.19869 1.4015 3.97627 1.33796 68.6727 40.8559 -18.2505 2.94553 3.8147e-006 3.8147e-006 -12.7067 2.29593e-006 2.18834e-006 2.52656 -2.27374e-013 -3.8147e-006 -179.96 -5.93456e-005 1.66153e-005 2.0973 6.93129 -0.0277844 54.0514 -5.83419e-006 5.43583e-006 3.0714 1.14441e-005 2.62901e-013 -25.4513 4.93423e-006 1.42077e-005 3.38 1.90735e-006 1.42109e-014 179.96 -5.10925e-005 -3.06793e-005 6.17171 -0.00487518 -0.000144839 16.6843 -22.5879 22.3018 6.15899 -2.02444 -2.78435 -178.019 9.66755 77.6449 3.43915 -1.42109e-014 7.10543e-015 30.5795 73.4227 -61.0163 10.2529 -7.62939e-006 3.8147e-006 -14.5306 1.50885 -0.414052 16.2051 1.90735e-006 3.8147e-006 3.75067 -40.7127 -3.84556 2.25392 2.19925 0.192031 69.2815 0.293065 -54.5659 2.17805 -1.99629 -0.219303 -71.1842 -0.147064 -39.9512 3.30715 1.42804 0.1739 21.9666 1.40539 -64.0562 3.93641 -0.769817 0.580934 -0.436051 0.270765 -51.9446 6.15898 -2.02445 2.78458 -0.785138 -2.4865 -47.6723 3.43915 -3.8147e-006 -2.55795e-013 2.15619 22.7712 -119.916 10.2529 1.42109e-014 1.90735e-006 92.2959 -22.4898 -7.16479 16.2051 -3.8147e-006 1.90735e-006 -3.51062 -15.1911 7.7454 3.30715 -1.42802 0.173889 -17.6023 -3.55668 -20.9454 2.25391 -2.19925 0.19203 -64.8461 -0.9292 -13.7513 2.17805 1.99629 -0.219301 71.0862 0.168126 -8.88783 3.9364 0.76983 0.580938 10.8507 -13.7774 -14.4052 7.02382 -0.812376 -5.19122e-008 10.998 -2.46865e-006 1.28309e-006 1.54247 3.8147e-006 4.76838e-007 -27.959 20.8752 36.3866 2.10596 -0.356756 0.0332333 -61.5634 0.0159913 -179.987 3.42081 -0.773968 -2.25959 160.495 -0.571069 163.42 3.42081 -0.773978 2.25975 -20.3619 3.00771 1.27956 6.74791 -1.90735e-006 -5.96047e-008 -2.94819e-006 1.45353e-008 9.98939e-006 
